HIERARCHY
ROOT Hips
{
	OFFSET 0.000000 0.000000 0.000000
	CHANNELS 6 Xposition Yposition Zposition Zrotation Yrotation Xrotation 
	JOINT LHipJoint
	{
		OFFSET 0.000000 0.000000 0.000000
		CHANNELS 3 Zrotation Yrotation Xrotation
		JOINT LeftUpLeg
		{
			OFFSET 1.363060 -1.794630 0.839290
			CHANNELS 3 Zrotation Yrotation Xrotation
			JOINT LeftLeg
			{
				OFFSET 2.448110 -6.726130 0.000000
				CHANNELS 3 Zrotation Yrotation Xrotation
				JOINT LeftFoot
				{
					OFFSET 2.562200 -7.039590 0.000000
					CHANNELS 3 Zrotation Yrotation Xrotation
					JOINT LeftToeBase
					{
						OFFSET 0.157640 -0.433110 2.322550
						CHANNELS 3 Zrotation Yrotation Xrotation
						End Site
						{
							OFFSET 0.000000 0.000000 0.000000
						}
					}
				}
			}
		}
	}
	JOINT RHipJoint
	{
		OFFSET 0.000000 0.000000 0.000000
		CHANNELS 3 Zrotation Yrotation Xrotation
		JOINT RightUpLeg
		{
			OFFSET -1.305520 -1.794630 0.839290
			CHANNELS 3 Zrotation Yrotation Xrotation
			JOINT RightLeg
			{
				OFFSET -2.542530 -6.985550 0.000000
				CHANNELS 3 Zrotation Yrotation Xrotation
				JOINT RightFoot
				{
					OFFSET -2.568260 -7.056230 0.000000
					CHANNELS 3 Zrotation Yrotation Xrotation
					JOINT RightToeBase
					{
						OFFSET -0.164730 -0.452590 2.363150
						CHANNELS 3 Zrotation Yrotation Xrotation
						End Site
						{
							OFFSET 0.000000 0.000000 0.000000
						}
					}
				}
			}
		}
	}
	JOINT LowerBack
	{
		OFFSET 0.000000 0.000000 0.000000
		CHANNELS 3 Zrotation Yrotation Xrotation
		JOINT Spine
		{
			OFFSET 0.028270 2.035590 -0.193380
			CHANNELS 3 Zrotation Yrotation Xrotation
			JOINT Spine1
			{
				OFFSET 0.056720 2.048850 -0.042750
				CHANNELS 3 Zrotation Yrotation Xrotation
				JOINT Neck
				{
					OFFSET 0.000000 0.000000 0.000000
					CHANNELS 3 Zrotation Yrotation Xrotation
					JOINT Neck1
					{
						OFFSET -0.054170 1.746240 0.172020
						CHANNELS 3 Zrotation Yrotation Xrotation
						JOINT Head
						{
							OFFSET 0.104070 1.761360 -0.123970
							CHANNELS 3 Zrotation Yrotation Xrotation
							End Site
							{
								OFFSET 0.000000 0.000000 0.000000
							}
						}
					}
				}
				JOINT LeftShoulder
				{
					OFFSET 0.000000 0.000000 0.000000
					CHANNELS 3 Zrotation Yrotation Xrotation
					JOINT LeftArm
					{
						OFFSET 3.362410 1.200890 -0.311210
						CHANNELS 3 Zrotation Yrotation Xrotation
						JOINT LeftForeArm
						{
							OFFSET 4.983000 -0.000000 -0.000000
							CHANNELS 3 Zrotation Yrotation Xrotation
							JOINT LeftHand
							{
								OFFSET 3.483560 -0.000000 -0.000000
								CHANNELS 3 Zrotation Yrotation Xrotation
								JOINT LeftFingerBase
								{
									OFFSET 0.000000 0.000000 0.000000
									CHANNELS 3 Zrotation Yrotation Xrotation
									JOINT LeftHandIndex1
									{
										OFFSET 0.715260 -0.000000 -0.000000
										CHANNELS 3 Zrotation Yrotation Xrotation
										End Site
										{
											OFFSET 0.000000 0.000000 0.000000
										}
									}
								}
								JOINT LThumb
								{
									OFFSET 0.000000 0.000000 0.000000
									CHANNELS 3 Zrotation Yrotation Xrotation
									End Site
									{
										OFFSET 0.000000 0.000000 0.000000
									}
								}
							}
						}
					}
				}
				JOINT RightShoulder
				{
					OFFSET 0.000000 0.000000 0.000000
					CHANNELS 3 Zrotation Yrotation Xrotation
					JOINT RightArm
					{
						OFFSET -3.136600 1.374050 -0.404650
						CHANNELS 3 Zrotation Yrotation Xrotation
						JOINT RightForeArm
						{
							OFFSET -5.241900 -0.000000 -0.000000
							CHANNELS 3 Zrotation Yrotation Xrotation
							JOINT RightHand
							{
								OFFSET -3.444170 -0.000000 -0.000000
								CHANNELS 3 Zrotation Yrotation Xrotation
								JOINT RightFingerBase
								{
									OFFSET 0.000000 0.000000 0.000000
									CHANNELS 3 Zrotation Yrotation Xrotation
									JOINT RightHandIndex1
									{
										OFFSET -0.622530 -0.000000 -0.000000
										CHANNELS 3 Zrotation Yrotation Xrotation
										End Site
										{
											OFFSET 0.000000 0.000000 0.000000
										}
									}
								}
								JOINT RThumb
								{
									OFFSET 0.000000 0.000000 0.000000
									CHANNELS 3 Zrotation Yrotation Xrotation
									End Site
									{
										OFFSET 0.000000 0.000000 0.000000
									}
								}
							}
						}
					}
				}
			}
		}
	}
}
MOTION
Frames: 5
Frame Time: 0.008333
-8.989448 17.691842 -8.987257 -120.314087 74.748004 -103.729996 5.357714 -0.995818 -2.694228 -10.987983 -7.751242 -29.786133 0.488057 12.346304 31.708571 0.093301 1.927641 -6.735061 0.540200 -4.708900 -13.080200 -8.902044 -3.414920 -2.054306 31.215842 -4.419553 -2.019055 2.056642 -0.626870 3.932484 0.103860 2.749148 3.811549 -1.210600 6.979900 -19.655800 -1.800784 2.427509 15.679235 -0.003279 3.826109 -1.066092 -2.997151 1.454263 2.447260 0.384834 -1.272169 -16.165208 8.267483 -1.480772 19.456367 2.443700 0.855600 16.436100 3.048722 -1.365269 -0.071987 -74.317963 -26.130636 45.826262 54.494962 -51.331790 -31.148601 -0.253051 -1.483193 -9.612061 34.209989 64.248737 32.164600 -7.125000 0.000000 0.000000 -133.006300 -78.076700 142.421500 -4.137415 1.675083 -1.201306 92.304045 24.054423 47.932741 -26.809169 39.173802 -10.277592 0.629933 0.380772 -44.111751 -26.168398 5.838520 -3.027200 7.125000 0.000000 0.000000 -0.120800 -23.273400 -0.063200 
-9.055186 17.690049 -8.977197 -121.986774 74.805483 -104.972123 5.350692 -1.081021 -2.747462 -11.136314 -7.793559 -30.546070 0.483579 12.418550 31.736888 0.145634 1.560995 -6.395850 0.546100 -4.734200 -13.151900 -8.921035 -3.416726 -2.027251 31.268988 -5.116432 -2.866097 2.034068 -0.664350 3.938391 0.090709 3.216826 3.159413 -1.226300 7.023300 -19.784400 -2.069039 2.312874 16.056386 0.030990 3.659083 -1.026662 -2.764447 1.346542 2.382262 0.188174 -1.654637 -16.215836 8.552157 -2.014124 19.264788 2.590300 0.638700 16.324500 3.026167 -1.415746 -0.064705 -74.858371 -28.584743 47.670697 50.372276 -49.757963 -27.669359 -0.384562 -1.545903 -8.560174 37.204822 63.350792 34.949500 -7.125000 0.000000 0.000000 -137.521000 -78.740500 145.719200 -4.185164 1.772798 -1.198038 93.449530 25.461264 47.371022 -26.399831 38.772275 -10.027993 0.634058 0.422153 -44.241381 -27.606414 5.007493 -2.763800 7.125000 0.000000 0.000000 -1.247100 -24.152700 -0.627800 
-9.117438 17.686463 -8.959866 -122.733445 74.551741 -105.377447 5.382977 -1.129901 -2.800591 -10.936771 -7.597293 -31.303055 0.512141 12.479865 31.801944 0.221030 1.048943 -5.981851 0.511200 -4.583000 -12.723000 -8.955004 -3.395349 -2.014420 31.788216 -5.735749 -3.557050 2.031726 -0.708066 3.942525 0.075242 3.544997 2.367961 -1.112400 6.700700 -18.831700 -2.066917 2.243467 16.418858 0.127339 3.584951 -0.982044 -2.412555 1.279614 2.333181 -0.129518 -2.087460 -16.296205 8.788828 -2.564726 19.114099 2.732000 0.392300 16.262100 3.020476 -1.467996 -0.050027 -75.536156 -31.121936 49.544068 46.396591 -47.956037 -24.379225 -0.513039 -1.579792 -7.709659 38.368010 61.707050 35.775700 -7.125000 0.000000 0.000000 -138.226300 -80.078100 145.290300 -4.211592 1.875728 -1.194628 94.354544 26.801277 47.261332 -25.940972 38.319658 -9.740522 0.644540 0.438436 -43.718776 -28.481023 4.727190 -2.705300 7.125000 0.000000 0.000000 -1.928000 -24.436800 -0.958200 
-9.178494 17.675407 -8.939946 -122.740848 74.123058 -105.085571 5.451328 -1.157829 -2.858486 -10.515149 -7.311491 -32.061913 0.552749 12.535202 31.877333 0.283054 0.628821 -5.605414 0.500400 -4.535000 -12.586800 -8.984986 -3.357885 -2.003222 32.581385 -6.249131 -4.154586 2.044578 -0.755985 3.943086 0.054569 3.788710 1.397638 -0.935100 6.159700 -17.248500 -1.824352 2.190154 16.749463 0.235137 3.559779 -0.947598 -2.112934 1.242716 2.277042 -0.496499 -2.563338 -16.402724 9.014100 -3.153602 19.013639 2.885300 0.123900 16.258800 3.015705 -1.516487 -0.028223 -76.176560 -33.596092 51.136278 42.809014 -46.057267 -21.507865 -0.595056 -1.621920 -6.600906 36.058882 61.368644 33.523700 -7.125000 0.000000 0.000000 -132.271200 -80.448500 139.776600 -4.234305 1.982853 -1.196831 95.090374 28.067944 47.704871 -25.534081 37.921889 -9.485768 0.642260 0.426823 -42.879530 -28.100198 4.634369 -2.609500 7.125000 0.000000 0.000000 -1.643000 -24.567600 -0.811500 
-9.242340 17.664849 -8.928392 -122.799742 73.898547 -104.774897 5.519530 -1.198758 -2.918648 -10.285151 -7.181812 -32.853816 0.580021 12.618329 31.986516 0.301745 0.493659 -5.424837 0.573800 -4.850900 -13.483900 -8.994723 -3.323849 -1.978148 33.191818 -6.677448 -4.797791 2.074341 -0.802383 3.940289 0.028643 3.613649 0.287630 -0.846300 5.867600 -16.400700 -1.650570 2.122961 17.009975 0.291005 3.501355 -0.942797 -1.941209 1.195889 2.169510 -0.931643 -3.139014 -16.455177 9.302705 -3.861136 18.956121 3.096700 -0.192000 16.293400 2.988864 -1.552344 -0.002884 -76.742477 -35.881915 52.854742 39.617899 -44.124229 -19.043721 -0.670904 -1.704966 -7.310796 37.330064 60.768803 34.681800 -7.125000 0.000000 0.000000 -134.564500 -80.937100 141.409200 -4.278844 2.095761 -1.199733 95.719861 29.215751 48.713622 -25.202617 37.602261 -9.275105 0.641224 0.410206 -42.193090 -27.645001 4.699587 -2.596100 7.125000 0.000000 0.000000 -1.292100 -24.514300 -0.639700 
